<svg width="35" height="37" viewBox="0 0 35 37" fill="none" xmlns="http://www.w3.org/2000/svg">
<path d="M0 15.3076C0 6.85345 6.85345 0 15.3076 0V21.1456C15.3076 29.5997 8.45416 36.4532 0 36.4532V15.3076Z" fill="#4A3AFF"/>
<path d="M17.5285 8.31801C17.5285 3.72408 21.2526 -3.05176e-05 25.8465 -3.05176e-05C30.4405 -3.05176e-05 34.1646 3.72408 34.1646 8.318V8.79825C34.1646 13.3922 30.4405 17.1163 25.8465 17.1163C21.2526 17.1163 17.5285 13.3922 17.5285 8.79825V8.31801Z" fill="#4CBFFF"/>
<path d="M17.5285 27.6552C17.5285 23.0613 21.2526 19.3372 25.8465 19.3372C30.4405 19.3372 34.1646 23.0613 34.1646 27.6552V28.1354C34.1646 32.7294 30.4405 36.4535 25.8465 36.4535C21.2526 36.4535 17.5285 32.7294 17.5285 28.1354V27.6552Z" fill="#962DFF"/>
</svg>
